<svg xmlns="http://www.w3.org/2000/svg" viewBox="0 0 1000 1000" fill="none">
    <g fill="#E95C1A">
        <rect x="127.213" y="648.249" width="12.144" height="60.144" />
        <rect x="483.718" y="648.249" width="12.144" height="60.144" />
        <rect x="588.969" y="648.249" width="12.144" height="60.144" />
        <rect x="779.545" y="648.249" width="12.144" height="60.144" />
        <rect x="570.526" y="485.241" width="45.211" height="145.342" />
        <path d="M 231.4322 624.6338 L 230.8152 625.2217999999999 L 196.6572 660.8087999999999 L 196.8062 695.7048 L 225.4492 695.8788 L 231.7502 690.1247999999999 L 231.45319999999998 689.7298 L 232.0912 690.3267999999999 L 236.9112 695.3077999999999 L 268.1552 693.3118 L 266.6622 661.2897999999999 L 231.75119999999998 624.8937999999999 L 231.4322 624.6338" />
        <path d="M 166.3414 291.60709999999995 L 166.3414 351.75109999999995 L 178.1564 351.75109999999995 L 202.7724 311.58709999999996 L 202.7724 351.75109999999995 L 214.0544 351.75109999999995 L 214.0544 291.60709999999995 L 201.86939999999998 291.60709999999995 L 177.6224 330.82809999999995 L 177.6224 291.60709999999995 L 166.3414 291.60709999999995" />
        <path d="M 242.0235 291.60709999999995 L 242.0235 351.75109999999995 L 260.1975 351.75109999999995 L 271.11150000000004 310.7251 L 281.9015 351.75109999999995 L 300.11650000000003 351.75109999999995 L 300.11650000000003 291.60709999999995 L 288.8345 291.60709999999995 L 288.8345 338.9511 L 276.8955 291.60709999999995 L 265.2025 291.60709999999995 L 253.30550000000002 338.9511 L 253.30550000000002 291.60709999999995 L 242.0235 291.60709999999995" />
        <path d="M 337.5217 321.71990000000005 L 342.2397 306.2329 L 354.2187 300.96090000000004 L 366.1377 306.19190000000003 L 370.7937 321.88390000000004 L 366.2607 337.30989999999997 L 354.2187 342.39689999999996 L 342.11670000000004 337.2479000000001 L 337.5217 321.71990000000005" />
        <path d="M 325.00870000000003 321.30989999999997 L 327.7577 336.7359 L 333.3577 344.9819 L 341.1317 350.39789999999994 L 354.0967 352.77790000000005 L 375.3677 344.5309 L 383.3487 321.5979 L 375.4307 298.8079 L 354.2607 290.5819 L 332.9267 298.7659 L 325.00870000000003 321.30989999999997" />
        <path d="M 420.3015 317.82259999999997 L 420.3015 301.7406000000001 L 431.5435 301.7406000000001 L 439.8705 302.1096 L 444.2815 304.5096000000001 L 445.9835 309.61760000000004 L 444.6715 314.21260000000007 L 440.87649999999996 316.9616000000001 L 430.10749999999996 317.82259999999997 L 420.3015 317.82259999999997" />
        <path d="M 420.3015 341.7406000000001 L 420.3015 327.83259999999996 L 428.26149999999996 327.83259999999996 L 437.0815 328.0376 L 441.9835 330.1926000000001 L 443.76849999999996 334.8896 L 442.23049999999995 339.4236000000001 L 437.6565 341.53560000000004 L 427.27549999999997 341.7406000000001 L 420.3015 341.7406000000001" />
        <path d="M 408.15749999999997 351.75160000000005 L 432.1995 351.75160000000005 L 442.84549999999996 351.1566 L 449.1235 348.67460000000005 L 453.73749999999995 343.6486 L 455.5845 336.6136 L 453.3075 328.8596 L 447.1325 323.5666 L 455.5845 318.1096 L 458.5385 309.04359999999997 L 456.6305 301.06359999999995 L 451.42049999999995 294.8686 L 443.27549999999997 292.0176 L 428.6305 291.60660000000007 L 408.15749999999997 291.60660000000007 L 408.15749999999997 351.75160000000005" />
        <path d="M 523.0507 291.60709999999995 L 523.0507 351.2591 L 535.1947 351.2591 L 535.1947 301.74109999999996 L 565.3897 301.74109999999996 L 565.3897 291.60709999999995 L 523.0507 291.60709999999995" />
        <path d="M 659.8509 315.40200000000004 L 651.5639 337.72 L 643.4409 315.40200000000004 L 659.8509 315.40200000000004" />
        <path d="M 682.2109 291.60699999999997 L 668.9999 291.60699999999997 L 663.7479000000001 305.269 L 639.7069 305.269 L 634.7429000000001 291.60699999999997 L 621.8609 291.60699999999997 L 645.2869000000001 351.751 L 658.1279000000001 351.751 L 682.2109 291.60699999999997" />
        <path d="M 716.1288 326.31539999999995 L 725.1138 326.31539999999995 L 736.0268 327.0534 L 739.4318 329.5974 L 740.6628 334.1104 L 739.0418 339.01240000000007 L 734.4677999999999 341.3714 L 725.6057999999999 341.57640000000004 L 716.1288 341.57640000000004 L 716.1288 326.31539999999995" />
        <path d="M 703.9848 291.6074 L 703.9848 351.7514 L 729.5448 351.7514 L 743.5548 350.1304 L 750.5498 344.3674000000001 L 753.1758 334.8894 L 749.1958 323.71039999999994 L 737.2977999999999 318.1504 L 743.8018 313.10439999999994 L 750.7138 303.3414 L 758.0577999999999 291.6074 L 743.5347999999999 291.6074 L 734.7557999999999 304.6944000000001 L 728.3548 313.5354 L 724.7027999999999 316.0384 L 718.5898 316.71440000000007 L 716.1288 316.71440000000007 L 716.1288 291.6074 L 703.9848 291.6074" />
        <path d="M 850.4268 315.40200000000004 L 842.1397999999999 337.72 L 834.0168 315.40200000000004 L 850.4268 315.40200000000004" />
        <path d="M 872.7868 291.60699999999997 L 859.5758 291.60699999999997 L 854.3238 305.269 L 830.2828 305.269 L 825.3188 291.60699999999997 L 812.4368 291.60699999999997 L 835.8628 351.751 L 848.7038 351.751 L 872.7868 291.60699999999997" />
        <path d="M 792.7511 593.3334 L 872.7871 369.41639999999995 L 823.7570999999999 369.41639999999995 L 767.0911 535.1394 L 712.2570999999999 369.41639999999995 L 664.2971 369.41639999999995 L 744.4861 593.3334 L 792.7511 593.3334" />
        <path d="M 255.6675 593.3334 L 335.70349999999996 369.41639999999995 L 286.6735 369.41639999999995 L 230.0075 535.1394 L 175.1735 369.41639999999995 L 127.21349999999998 369.41639999999995 L 207.40249999999997 593.3334 L 255.6675 593.3334" />
        <path d="M 513.6453 593.3334 L 486.8243 593.3334 L 335.7033 593.3334 L 335.7033 555.4534 L 402.1453 555.4534 L 402.1453 369.41639999999995 L 447.3553 369.41639999999995 L 447.3553 555.4534 L 486.8243 555.4534 L 513.6453 555.4534 L 664.2973 555.4534 L 664.2973 593.3334 L 513.6453 593.3334" />
        <path d="M 726.4386 667.026 L 768.8306 709.418 L 811.2225999999999 667.026 L 768.8306 624.6339999999999 L 726.4386 667.026" />
    </g>
</svg>